<?xml version="1.0" encoding="UTF-8" standalone="no"?> <svg xmlns:dc="http://purl.org/dc/elements/1.1/" xmlns:cc="http://creativecommons.org/ns#" xmlns:rdf="http://www.w3.org/1999/02/22-rdf-syntax-ns#" xmlns:svg="http://www.w3.org/2000/svg" xmlns="http://www.w3.org/2000/svg" xmlns:sodipodi="http://sodipodi.sourceforge.net/DTD/sodipodi-0.dtd" xmlns:inkscape="http://www.inkscape.org/namespaces/inkscape" version="1.1" id="svg7" xml:space="preserve" width="480" height="240" viewBox="0 0 480 240" sodipodi:docname="bloomberg-engineering.svg" inkscape:version="1.0.2 (e86c8708, 2021-01-15)"><metadata id="metadata13"></metadata><defs id="defs11"><clipPath id="clipPath29"><path d="m 695.117,1235.55 h 3046.61 v 635.684 H 695.117 Z" id="path27"></path></clipPath></defs><g id="g15" inkscape:groupmode="layer" inkscape:label="ink_ext_XXXXXX" transform="matrix(1.3333333,0,0,-1.3333333,0,342.05333)"><g id="g91" transform="translate(-40.673845,40.350502)"><g id="g23" transform="scale(0.1)"><g id="g25" clip-path="url(#clipPath29)"><path d="m 775.266,1610.43 h 76.414 c 64.41,0 94.734,-16.39 94.734,-63.14 0,-58.74 -56.844,-65.69 -97.898,-65.69 h -73.25 z M 695.68,1413.39 h 161.05 c 84.622,0 169.26,30.31 169.26,127.59 0,57.45 -40.42,101.68 -96.635,107.97 v 1.29 c 46.098,13.88 77.685,47.33 77.685,97.88 0,81.47 -69.481,112.41 -137.052,112.41 H 695.68 Z m 79.586,378.93 h 65.672 c 60.007,0 86.527,-18.94 86.527,-57.46 0,-33.48 -26.52,-56.22 -79.574,-56.22 h -72.625 v 113.68" style="fill:#100f0d;fill-opacity:1;fill-rule:nonzero;stroke:none" id="path31"></path><path d="m 1077.94,1871.11 h 75.78 v -457.72 h -75.78 v 457.72" style="fill:#100f0d;fill-opacity:1;fill-rule:nonzero;stroke:none" id="path33"></path><path d="m 1204.39,1564.97 c 0,-95.38 73.26,-159.16 164.86,-159.16 91.55,0 164.81,63.78 164.81,159.16 0,95.36 -73.26,159.15 -164.81,159.15 -91.6,0 -164.86,-63.79 -164.86,-159.15 z m 75.79,0 c 0,47.37 33.47,90.94 89.07,90.94 55.56,0 89.03,-43.57 89.03,-90.94 0,-47.38 -33.47,-90.95 -89.03,-90.95 -55.6,0 -89.07,43.57 -89.07,90.95" style="fill:#100f0d;fill-opacity:1;fill-rule:nonzero;stroke:none" id="path35"></path><path d="m 1568.32,1564.97 c 0,-95.38 73.26,-159.16 164.84,-159.16 91.56,0 164.82,63.78 164.82,159.16 0,95.36 -73.26,159.15 -164.82,159.15 -91.58,0 -164.84,-63.79 -164.84,-159.15 z m 75.78,0 c 0,47.37 33.49,90.94 89.06,90.94 55.57,0 89.04,-43.57 89.04,-90.94 0,-47.38 -33.47,-90.95 -89.04,-90.95 -55.57,0 -89.06,43.57 -89.06,90.95" style="fill:#100f0d;fill-opacity:1;fill-rule:nonzero;stroke:none" id="path37"></path><path d="m 1944.25,1716.55 h 71.98 v -47.37 h 1.26 c 13.28,28.39 42.33,54.94 92.85,54.94 46.74,0 78.95,-18.32 94.73,-56.22 22.11,38.55 54.3,56.22 99.78,56.22 80.84,0 109.25,-57.47 109.25,-130.08 v -180.65 h -75.78 v 171.78 c 0,37.9 -11.36,70.74 -56.19,70.74 -47.38,0 -65.07,-39.16 -65.07,-78.29 v -164.23 h -75.77 v 180.65 c 0,37.24 -15.17,61.87 -51.8,61.87 -49.88,0 -69.45,-36.64 -69.45,-77.06 v -165.46 h -75.79 v 303.16" style="fill:#100f0d;fill-opacity:1;fill-rule:nonzero;stroke:none" id="path39"></path><path d="m 2475.53,1413.39 h 72 v 45.47 h 1.26 c 22.12,-36.61 61.89,-53.05 104.22,-53.05 93.45,0 149.66,69.48 149.66,159.16 0,89.66 -60,159.15 -146.51,159.15 -56.84,0 -87.16,-26.55 -102.94,-46.1 h -1.9 v 193.09 h -75.79 z m 251.36,151.58 c 0,-47.38 -33.48,-90.95 -89.05,-90.95 -55.56,0 -89.05,43.57 -89.05,90.95 0,47.37 33.49,90.94 89.05,90.94 55.57,0 89.05,-43.57 89.05,-90.94" style="fill:#100f0d;fill-opacity:1;fill-rule:nonzero;stroke:none" id="path41"></path><path d="m 3143.86,1538.46 v 20.81 c 0,105.45 -57.46,164.85 -142.1,164.85 -91.57,0 -164.84,-63.79 -164.84,-159.15 0,-95.38 73.27,-159.16 164.84,-159.16 48,0 92.83,17.08 128.2,60.64 l -54.3,41.03 c -18.93,-23.36 -43.58,-41.03 -81.46,-41.03 -42.32,0 -76.43,27.13 -81.49,72.01 z m -231.15,56.81 c 5.7,43.59 33.48,72 78.33,72 47.35,0 76.41,-27.77 77.03,-72 h -155.36" style="fill:#100f0d;fill-opacity:1;fill-rule:nonzero;stroke:none" id="path43"></path><path d="m 3193.29,1716.55 h 75.76 v -48.01 h 1.29 c 16.41,34.73 49.87,55.58 89.67,55.58 9.48,0 18.32,-1.91 27.14,-4.42 v -73.27 c -12.63,3.17 -24.63,5.68 -36.61,5.68 -71.37,0 -81.49,-60 -81.49,-76.42 v -162.3 h -75.76 v 303.16" style="fill:#100f0d;fill-opacity:1;fill-rule:nonzero;stroke:none" id="path45"></path><path d="m 3646.37,1716.55 v -45.5 h -1.26 c -22.11,36.65 -61.9,53.07 -104.22,53.07 -93.47,0 -149.66,-69.49 -149.66,-159.15 0,-85.88 59.99,-155.38 150.92,-155.38 37.89,0 77.05,14.53 99.17,44.21 h 1.25 v -22.11 c 0,-60 -22.74,-101.65 -95.98,-101.65 -42.33,0 -73.89,15.77 -104.22,43.58 l -45.48,-61.91 c 42.96,-37.91 94.11,-49.88 150.33,-49.88 118.09,0 171.14,69.46 171.14,178.71 v 276.01 z m -89.69,-60.64 c 54.96,0 89.69,-36.64 89.69,-89.03 0,-50.57 -34.1,-89.08 -90.32,-89.08 -51.16,0 -89.04,39.79 -89.04,87.79 0,53.68 36.63,90.32 89.67,90.32" style="fill:#100f0d;fill-opacity:1;fill-rule:nonzero;stroke:none" id="path47"></path></g></g><path d="M 69.5117,97.7941 V 65.268 H 228.833 V 97.7941 H 69.5117" style="fill:#000000;fill-opacity:1;fill-rule:nonzero;stroke:none;stroke-width:0.1" id="path49"></path><path d="m 87.1945,72.4941 v 2.0168 h -8.2144 v 7.1821 h 7.8086 v 2.0039 h -7.8086 v 5.6941 h 8.2144 v 1.9922 H 76.582 V 72.4941 Z m 13.2965,0 v 9.5918 c 0,1.6321 -0.363,2.868 -1.0887,3.7082 -0.7253,0.8399 -1.7972,1.261 -3.2156,1.261 -0.7051,0 -1.3875,-0.1129 -2.0472,-0.3391 -0.6602,-0.225 -1.3223,-0.6328 -1.9864,-1.223 l -0.332,1.18 h -2.066 V 72.4941 h 2.3488 v 11.2028 c 0.6149,0.4429 1.1887,0.773 1.7219,0.9902 0.5328,0.2168 1.0902,0.3258 1.6722,0.3258 0.9594,0 1.6438,-0.2289 2.054,-0.6879 0.4097,-0.4602 0.6148,-1.3 0.6148,-2.5211 v -9.3098 z m 14.055,14.1789 h -2.066 l -0.282,-1.0332 c -0.566,0.4684 -1.14,0.8204 -1.722,1.0582 -0.582,0.2379 -1.234,0.3571 -1.955,0.3571 -1.55,0 -2.835,-0.6262 -3.856,-1.8762 -1.02,-1.25 -1.531,-2.9449 -1.531,-5.0848 0,-2.2461 0.472,-3.9582 1.415,-5.1339 0.942,-1.1762 2.233,-1.7653 3.873,-1.7653 0.804,0 1.544,0.168 2.22,0.5051 0.676,0.3359 1.203,0.6961 1.58,1.082 v -0.6769 c 0,-1.7129 -0.383,-2.8871 -1.15,-3.5231 -0.766,-0.6351 -1.867,-0.9531 -3.301,-0.9531 -0.771,0 -1.441,0.0941 -2.011,0.2832 -0.57,0.1891 -1.035,0.402 -1.396,0.6391 h -0.553 v -2.2133 c 0.664,-0.1797 1.295,-0.3219 1.894,-0.4238 0.598,-0.1032 1.192,-0.1539 1.783,-0.1539 2.246,0 3.986,0.5699 5.22,1.7089 1.234,1.1399 1.846,2.9719 1.838,5.4969 z m -2.324,-10.2191 c -0.385,-0.3437 -0.848,-0.65 -1.389,-0.916 -0.542,-0.266 -1.169,-0.4 -1.882,-0.4 -1.123,0 -1.98,0.4019 -2.57,1.2062 -0.59,0.8028 -0.886,2.0528 -0.886,3.75 0,1.6559 0.312,2.8938 0.935,3.7141 0.623,0.8199 1.496,1.2297 2.619,1.2297 0.558,0 1.087,-0.1008 1.587,-0.302 0.5,-0.2007 1.029,-0.5019 1.586,-0.9027 z m 14.243,-3.9598 v 1.845 h -2.927 V 86.673 h -5.19 v -1.832 h 2.878 V 74.3391 h -3.456 v -1.845 z m -3.026,17.352 v 3.1238 h -2.816 v -3.1238 z m 16.952,-17.352 v 9.5918 c 0,1.6321 -0.363,2.868 -1.089,3.7082 -0.725,0.8399 -1.797,1.261 -3.215,1.261 -0.706,0 -1.388,-0.1129 -2.048,-0.3391 -0.66,-0.225 -1.322,-0.6328 -1.986,-1.223 l -0.332,1.18 h -2.066 V 72.4941 h 2.349 v 11.2028 c 0.615,0.4429 1.189,0.773 1.722,0.9902 0.532,0.2168 1.09,0.3258 1.672,0.3258 0.959,0 1.644,-0.2289 2.054,-0.6879 0.409,-0.4602 0.615,-1.3 0.615,-2.5211 v -9.3098 z m 14.563,6.752 v 1.5121 c 0,1.9188 -0.472,3.4477 -1.415,4.5867 -0.942,1.1403 -2.328,1.7102 -4.156,1.7102 -1.845,0 -3.351,-0.6602 -4.519,-1.9801 -1.169,-1.3199 -1.753,-3.198 -1.753,-5.6328 0,-2.4922 0.648,-4.332 1.943,-5.5211 1.296,-1.1891 2.964,-1.7832 5.005,-1.7832 0.787,0 1.578,0.0883 2.374,0.2641 0.795,0.1761 1.594,0.4332 2.398,0.7691 v 2.1398 h -0.591 c -0.393,-0.3121 -0.953,-0.591 -1.678,-0.8371 -0.726,-0.2457 -1.474,-0.3687 -2.244,-0.3687 -1.452,0 -2.624,0.425 -3.517,1.273 -0.894,0.8489 -1.341,2.1379 -1.341,3.868 z m -9.469,1.734 c 0.073,1.1969 0.432,2.189 1.076,2.9758 0.643,0.7871 1.568,1.18 2.773,1.18 1.221,0 2.09,-0.389 2.607,-1.1679 0.516,-0.7789 0.775,-1.775 0.775,-2.9879 z m 23.562,-1.734 v 1.5121 c 0,1.9188 -0.472,3.4477 -1.414,4.5867 -0.943,1.1403 -2.329,1.7102 -4.157,1.7102 -1.844,0 -3.351,-0.6602 -4.519,-1.9801 -1.168,-1.3199 -1.752,-3.198 -1.752,-5.6328 0,-2.4922 0.647,-4.332 1.943,-5.5211 1.295,-1.1891 2.963,-1.7832 5.005,-1.7832 0.787,0 1.578,0.0883 2.373,0.2641 0.795,0.1761 1.594,0.4332 2.398,0.7691 v 2.1398 h -0.59 c -0.394,-0.3121 -0.953,-0.591 -1.679,-0.8371 -0.725,-0.2457 -1.474,-0.3687 -2.244,-0.3687 -1.451,0 -2.624,0.425 -3.517,1.273 -0.894,0.8489 -1.341,2.1379 -1.341,3.868 z m -9.469,1.734 c 0.074,1.1969 0.432,2.189 1.076,2.9758 0.644,0.7871 1.568,1.18 2.773,1.18 1.222,0 2.091,-0.389 2.607,-1.1679 0.517,-0.7789 0.775,-1.775 0.775,-2.9879 z m 23.463,3.332 v 2.3609 c -0.344,0.1149 -0.736,0.2071 -1.174,0.277 -0.439,0.0699 -0.937,0.1051 -1.494,0.1051 -0.345,0 -0.701,-0.0832 -1.07,-0.2461 -0.369,-0.1649 -0.738,-0.3801 -1.107,-0.6461 -0.369,-0.2668 -0.734,-0.5699 -1.094,-0.9098 -0.361,-0.3402 -0.701,-0.691 -1.021,-1.0511 l -0.32,2.471 h -4.156 v -1.832 h 2.189 V 74.3391 h -2.189 v -1.845 h 7.329 v 1.845 h -2.829 v 7.9808 c 0.263,0.2621 0.543,0.5449 0.843,0.8492 0.299,0.3028 0.619,0.584 0.959,0.8418 0.34,0.2582 0.701,0.4731 1.082,0.6461 0.381,0.1719 0.789,0.2578 1.224,0.2578 0.311,0 0.578,-0.0207 0.799,-0.0617 0.221,-0.041 0.416,-0.0902 0.584,-0.1472 0.168,-0.0579 0.316,-0.1207 0.443,-0.1911 0.127,-0.0699 0.248,-0.1367 0.363,-0.2027 z m 11.135,-11.818 v 1.845 h -2.927 V 86.673 h -5.19 v -1.832 h 2.878 V 74.3391 h -3.455 v -1.845 z m -3.025,17.352 v 3.1238 h -2.816 v -3.1238 z m 16.951,-17.352 v 9.5918 c 0,1.6321 -0.363,2.868 -1.088,3.7082 -0.726,0.8399 -1.798,1.261 -3.216,1.261 -0.705,0 -1.388,-0.1129 -2.048,-0.3391 -0.66,-0.225 -1.322,-0.6328 -1.986,-1.223 l -0.332,1.18 h -2.066 V 72.4941 h 2.349 v 11.2028 c 0.615,0.4429 1.189,0.773 1.722,0.9902 0.533,0.2168 1.09,0.3258 1.672,0.3258 0.959,0 1.644,-0.2289 2.054,-0.6879 0.41,-0.4602 0.615,-1.3 0.615,-2.5211 v -9.3098 z m 14.055,14.1789 h -2.066 l -0.282,-1.0332 c -0.566,0.4684 -1.14,0.8204 -1.722,1.0582 -0.582,0.2379 -1.234,0.3571 -1.955,0.3571 -1.55,0 -2.835,-0.6262 -3.856,-1.8762 -1.02,-1.25 -1.531,-2.9449 -1.531,-5.0848 0,-2.2461 0.472,-3.9582 1.415,-5.1339 0.942,-1.1762 2.234,-1.7653 3.873,-1.7653 0.804,0 1.544,0.168 2.22,0.5051 0.676,0.3359 1.203,0.6961 1.58,1.082 v -0.6769 c 0,-1.7129 -0.383,-2.8871 -1.15,-3.5231 -0.766,-0.6351 -1.867,-0.9531 -3.301,-0.9531 -0.771,0 -1.441,0.0941 -2.011,0.2832 -0.57,0.1891 -1.035,0.402 -1.396,0.6391 h -0.553 v -2.2133 c 0.664,-0.1797 1.295,-0.3219 1.894,-0.4238 0.598,-0.1032 1.192,-0.1539 1.783,-0.1539 2.246,0 3.986,0.5699 5.22,1.7089 1.234,1.1399 1.846,2.9719 1.838,5.4969 z m -2.324,-10.2191 c -0.385,-0.3437 -0.848,-0.65 -1.389,-0.916 -0.542,-0.266 -1.169,-0.4 -1.882,-0.4 -1.123,0 -1.98,0.4019 -2.57,1.2062 -0.59,0.8028 -0.886,2.0528 -0.886,3.75 0,1.6559 0.312,2.8938 0.935,3.7141 0.623,0.8199 1.496,1.2297 2.619,1.2297 0.558,0 1.087,-0.1008 1.587,-0.302 0.5,-0.2007 1.029,-0.5019 1.586,-0.9027 v -7.3793" style="fill:#ffffff;fill-opacity:1;fill-rule:nonzero;stroke:none;stroke-width:0.1" id="path51"></path></g></g></svg> 