<svg id="Layer_1" data-name="Layer 1" xmlns="http://www.w3.org/2000/svg" xmlns:xlink="http://www.w3.org/1999/xlink" viewBox="0 0 646.1 574.14"><defs><style>.cls-1{fill:url(#linear-gradient);}.cls-2{fill:url(#linear-gradient-2);}.cls-3{fill:url(#linear-gradient-3);}.cls-4{fill:#5ab1bb;}.cls-5,.cls-6{fill:#dcfdff;}.cls-42,.cls-43,.cls-5{fill-rule:evenodd;}.cls-7{fill:url(#linear-gradient-4);}.cls-8{fill:url(#linear-gradient-5);}.cls-9{fill:url(#linear-gradient-6);}.cls-10{fill:url(#linear-gradient-7);}.cls-11{fill:url(#linear-gradient-8);}.cls-12{fill:url(#linear-gradient-9);}.cls-13{fill:url(#linear-gradient-10);}.cls-14{fill:url(#linear-gradient-11);}.cls-15{fill:url(#linear-gradient-12);}.cls-16{fill:url(#linear-gradient-13);}.cls-17{fill:url(#linear-gradient-14);}.cls-18{fill:url(#linear-gradient-15);}.cls-19{fill:url(#linear-gradient-16);}.cls-20{fill:url(#linear-gradient-17);}.cls-21{fill:url(#linear-gradient-18);}.cls-22{fill:url(#linear-gradient-19);}.cls-23{fill:url(#linear-gradient-20);}.cls-24{fill:#37556e;}.cls-25{fill:#395971;}.cls-26{fill:url(#linear-gradient-21);}.cls-27{fill:url(#linear-gradient-22);}.cls-28{fill:url(#linear-gradient-23);}.cls-29{fill:url(#linear-gradient-24);}.cls-30{fill:url(#linear-gradient-25);}.cls-31{fill:url(#linear-gradient-26);}.cls-32{fill:url(#linear-gradient-27);}.cls-33{fill:url(#linear-gradient-28);}.cls-34{fill:url(#linear-gradient-29);}.cls-35{fill:url(#linear-gradient-30);}.cls-36{fill:url(#linear-gradient-31);}.cls-37{fill:url(#linear-gradient-32);}.cls-38{fill:url(#linear-gradient-33);}.cls-39{fill:#00c3cd;}.cls-40{fill:url(#linear-gradient-34);}.cls-41{fill:url(#linear-gradient-35);}.cls-42{fill:#fff;}.cls-43{fill:#fbfbfb;}</style><linearGradient id="linear-gradient" x1="6" y1="434.02" x2="531.52" y2="434.02" gradientTransform="matrix(1, 0, 0, -1, 42.52, 600.9)" gradientUnits="userSpaceOnUse"><stop offset="0" stop-color="#5ab1bb"/><stop offset="1" stop-color="#344d67"/></linearGradient><linearGradient id="linear-gradient-2" x1="120.53" y1="-2.88" x2="412.45" y2="-2.88" gradientTransform="matrix(1, 0, 0, -1, 42.52, 600.9)" gradientUnits="userSpaceOnUse"><stop offset="0" stop-color="#354f69"/><stop offset="1" stop-color="#5ab0bb"/></linearGradient><linearGradient id="linear-gradient-3" x1="495.79" y1="22.04" x2="583.12" y2="22.04" gradientTransform="matrix(1, 0, 0, -1, 42.52, 600.9)" gradientUnits="userSpaceOnUse"><stop offset="0" stop-color="#0011bf"/><stop offset="1" stop-color="#7955ff"/></linearGradient><linearGradient id="linear-gradient-4" x1="456.45" y1="217.44" x2="498.93" y2="217.44" gradientTransform="matrix(1, 0, 0, -1, 42.52, 600.9)" gradientUnits="userSpaceOnUse"><stop offset="0.02" stop-color="#5556ff"/><stop offset="0.61" stop-color="#b0b1ff"/><stop offset="1" stop-color="#e9eaff"/></linearGradient><linearGradient id="linear-gradient-5" x1="401.05" y1="157.92" x2="459.52" y2="157.92" gradientTransform="matrix(1, 0, 0, -1, 42.52, 600.9)" gradientUnits="userSpaceOnUse"><stop offset="0" stop-color="#e9eaff"/><stop offset="0.39" stop-color="#b0b1ff"/><stop offset="0.98" stop-color="#5556ff"/></linearGradient><linearGradient id="linear-gradient-6" x1="401.8" y1="197.21" x2="464.01" y2="197.21" gradientTransform="matrix(1, 0, 0, -1, 42.52, 600.9)" gradientUnits="userSpaceOnUse"><stop offset="0" stop-color="#c0bfff"/><stop offset="1" stop-color="#e9eaff"/></linearGradient><linearGradient id="linear-gradient-7" x1="424.41" y1="200.69" x2="490.37" y2="200.69" gradientTransform="matrix(1, 0, 0, -1, 42.52, 600.9)" gradientUnits="userSpaceOnUse"><stop offset="0" stop-color="#18003f"/><stop offset="1" stop-color="#0800bf"/></linearGradient><linearGradient id="linear-gradient-8" x1="220.53" y1="117.62" x2="455.75" y2="117.62" gradientTransform="matrix(1, 0, 0, -1, 42.52, 600.9)" gradientUnits="userSpaceOnUse"><stop offset="0" stop-color="#5560ff"/><stop offset="1" stop-color="#1517ff"/></linearGradient><linearGradient id="linear-gradient-9" x1="366.9" y1="135.26" x2="447.33" y2="135.26" gradientTransform="matrix(1, 0, 0, -1, 42.52, 600.9)" gradientUnits="userSpaceOnUse"><stop offset="0" stop-color="#1517ff"/><stop offset="1" stop-color="#5560ff"/></linearGradient><linearGradient id="linear-gradient-10" x1="322.81" y1="237.93" x2="395.45" y2="237.93" xlink:href="#linear-gradient-6"/><linearGradient id="linear-gradient-11" x1="146.43" y1="127.71" x2="243.13" y2="127.71" gradientTransform="matrix(1, 0, 0, -1, 42.52, 600.9)" gradientUnits="userSpaceOnUse"><stop offset="0" stop-color="#ab94ff"/><stop offset="0.39" stop-color="#945bff"/><stop offset="0.98" stop-color="#6f00ff"/></linearGradient><linearGradient id="linear-gradient-12" x1="156.13" y1="170.17" x2="244.98" y2="170.17" gradientTransform="matrix(1, 0, 0, -1, 42.52, 600.9)" gradientUnits="userSpaceOnUse"><stop offset="0" stop-color="#ab94ff"/><stop offset="0.39" stop-color="#945bf5"/><stop offset="0.98" stop-color="#6f00e4"/></linearGradient><linearGradient id="linear-gradient-13" x1="-25.62" y1="70.32" x2="34.08" y2="70.32" xlink:href="#linear-gradient-11"/><linearGradient id="linear-gradient-14" x1="36.42" y1="219.16" x2="189.85" y2="219.16" xlink:href="#linear-gradient-6"/><linearGradient id="linear-gradient-15" x1="23.66" y1="258.23" x2="40.28" y2="258.23" xlink:href="#linear-gradient-11"/><linearGradient id="linear-gradient-16" x1="456.45" y1="180.97" x2="484.91" y2="180.97" xlink:href="#linear-gradient-5"/><linearGradient id="linear-gradient-17" x1="478.19" y1="193.45" x2="484.64" y2="193.45" xlink:href="#linear-gradient-6"/><linearGradient id="linear-gradient-18" x1="6" y1="110.69" x2="171.71" y2="110.69" xlink:href="#linear-gradient-6"/><linearGradient id="linear-gradient-19" x1="19.53" y1="193.58" x2="118.22" y2="193.58" xlink:href="#linear-gradient-6"/><linearGradient id="linear-gradient-20" x1="124.34" y1="165.07" x2="518.26" y2="165.07" gradientTransform="matrix(1, 0, 0, -1, 42.52, 600.9)" gradientUnits="userSpaceOnUse"><stop offset="0" stop-color="#5ab1bb"/><stop offset="1" stop-color="#385770"/></linearGradient><linearGradient id="linear-gradient-21" x1="23.34" y1="165.73" x2="101.76" y2="165.73" gradientTransform="matrix(1, 0, 0, -1, 42.52, 600.9)" gradientUnits="userSpaceOnUse"><stop offset="0" stop-color="#5ab0ba"/><stop offset="0.23" stop-color="#5ab0ba"/><stop offset="0.5" stop-color="#5ab0ba"/><stop offset="0.76" stop-color="#3d637a"/><stop offset="1" stop-color="#354f69"/></linearGradient><linearGradient id="linear-gradient-22" x1="92.44" y1="130.76" x2="516.03" y2="130.76" gradientTransform="matrix(1, 0, 0, -1, 42.52, 600.9)" gradientUnits="userSpaceOnUse"><stop offset="0" stop-color="#354f69"/><stop offset="0.23" stop-color="#5ab1bb"/><stop offset="0.4" stop-color="#5ab1bb"/><stop offset="0.76" stop-color="#5ab1bb"/><stop offset="1" stop-color="#5ab0bb"/></linearGradient><linearGradient id="linear-gradient-23" x1="314.12" y1="72.31" x2="335.77" y2="72.31" gradientTransform="matrix(1, 0, 0, -1, 42.52, 600.9)" gradientUnits="userSpaceOnUse"><stop offset="0" stop-color="#00cce9"/><stop offset="1" stop-color="#00e6e9"/></linearGradient><linearGradient id="linear-gradient-24" x1="316.64" y1="69.25" x2="333.87" y2="69.25" gradientTransform="matrix(1, 0, 0, -1, 42.52, 600.9)" gradientUnits="userSpaceOnUse"><stop offset="0" stop-color="#55fffc"/><stop offset="1" stop-color="#bffeff"/></linearGradient><linearGradient id="linear-gradient-25" x1="222.9" y1="202.85" x2="322.81" y2="202.85" gradientTransform="matrix(1, 0, 0, -1, 42.52, 600.9)" gradientUnits="userSpaceOnUse"><stop offset="0" stop-color="#59adb8"/><stop offset="0.25" stop-color="#55a4b0"/><stop offset="0.5" stop-color="#57a8b3"/><stop offset="1" stop-color="#fff"/></linearGradient><linearGradient id="linear-gradient-26" x1="286.99" y1="75.99" x2="310.67" y2="75.99" gradientTransform="matrix(1, 0, 0, -1, 42.52, 600.9)" gradientUnits="userSpaceOnUse"><stop offset="0" stop-color="#ffbfd4"/><stop offset="0.11" stop-color="#ffb7d2"/><stop offset="0.27" stop-color="#ffa2ce"/><stop offset="0.46" stop-color="#ff7fc6"/><stop offset="0.69" stop-color="#ff4fbb"/><stop offset="0.93" stop-color="#ff12ae"/><stop offset="1" stop-color="#f0a"/></linearGradient><linearGradient id="linear-gradient-27" x1="303.96" y1="65.95" x2="312.79" y2="65.95" gradientTransform="matrix(1, 0, 0, -1, 42.52, 600.9)" gradientUnits="userSpaceOnUse"><stop offset="0.02" stop-color="#6f00ff"/><stop offset="0.61" stop-color="#945bff"/><stop offset="1" stop-color="#ab94ff"/></linearGradient><linearGradient id="linear-gradient-28" x1="280.48" y1="58.54" x2="345.39" y2="58.54" gradientTransform="matrix(1, 0, 0, -1, 42.52, 600.9)" gradientUnits="userSpaceOnUse"><stop offset="0" stop-color="#0ae3ee"/><stop offset="1" stop-color="#00848a"/></linearGradient><linearGradient id="linear-gradient-29" x1="515.53" y1="402.93" x2="518.93" y2="402.93" xlink:href="#linear-gradient-6"/><linearGradient id="linear-gradient-30" x1="19.49" y1="402.93" x2="22.9" y2="402.93" xlink:href="#linear-gradient-6"/><linearGradient id="linear-gradient-31" x1="573.24" y1="236.72" x2="553.88" y2="236.72" gradientTransform="matrix(1, 0, 0, -1, 42.52, 600.9)" gradientUnits="userSpaceOnUse"><stop offset="0" stop-color="#00b1ba"/><stop offset="1" stop-color="#00c3cd"/></linearGradient><linearGradient id="linear-gradient-32" x1="620.48" y1="239.51" x2="600.6" y2="239.51" gradientTransform="matrix(1, 0, 0, -1, 42.52, 600.9)" gradientUnits="userSpaceOnUse"><stop offset="0" stop-color="#07aeb7"/><stop offset="1" stop-color="#00c3cd"/></linearGradient><linearGradient id="linear-gradient-33" x1="567.03" y1="165.75" x2="503.81" y2="165.75" gradientTransform="matrix(1, 0, 0, -1, 42.52, 600.9)" gradientUnits="userSpaceOnUse"><stop offset="0" stop-color="#5ab1bb"/><stop offset="0.11" stop-color="#4d8d9d"/><stop offset="0.27" stop-color="#5ab1bb"/><stop offset="0.46" stop-color="#44778a"/><stop offset="0.69" stop-color="#59aeb9"/><stop offset="0.93" stop-color="#5ab0bb"/><stop offset="1" stop-color="#5ab0bb"/></linearGradient><linearGradient id="linear-gradient-34" x1="616.57" y1="169.05" x2="538.53" y2="169.05" gradientTransform="matrix(1, 0, 0, -1, 42.52, 600.9)" gradientUnits="userSpaceOnUse"><stop offset="0" stop-color="#59adb7"/><stop offset="0.11" stop-color="#65cbd7"/><stop offset="0.27" stop-color="#60cddb"/><stop offset="0.46" stop-color="#4d8d9d"/><stop offset="0.69" stop-color="#488192"/><stop offset="0.93" stop-color="#5dc8dd"/><stop offset="1" stop-color="#5ec8dd"/></linearGradient><linearGradient id="linear-gradient-35" x1="572.37" y1="53.33" x2="508.6" y2="53.33" xlink:href="#linear-gradient-3"/></defs><path class="cls-1" d="M557.58,292.14H65a16.46,16.46,0,0,1-16.46-16.47V58.09A16.46,16.46,0,0,1,65,41.62h492.6A16.46,16.46,0,0,1,574,58.09V275.67A16.46,16.46,0,0,1,557.58,292.14Z" transform="translate(-16.9 -40.44)"/><path class="cls-2" d="M309,614.58c80.61,0,146-4.84,146-10.81S389.62,593,309,593s-146,4.84-146,10.8S228.4,614.58,309,614.58Z" transform="translate(-16.9 -40.44)"/><path class="cls-3" d="M625.64,578.86c0,3-19.55,5.38-43.66,5.38s-43.67-2.41-43.67-5.38,19.55-5.37,43.67-5.37S625.64,575.89,625.64,578.86Z" transform="translate(-16.9 -40.44)"/><path class="cls-4" d="M538.64,258.84v53a9.43,9.43,0,0,1-9.42,9.43H489.89L484,333.92a.92.92,0,0,1-1.68,0l-5.9-12.69A9.43,9.43,0,0,1,467,311.8v-53a9.43,9.43,0,0,1,9.42-9.44h52.82A9.43,9.43,0,0,1,538.64,258.84Z" transform="translate(-16.9 -40.44)"/><path class="cls-5" d="M480.57,294.9c4.72,0,7.93-3.22,7.93-8.52,0-4.46-2.71-8.18-7.67-8.18-4.77,0-7.86,3.63-7.86,8.47C473,291.28,475.77,294.9,480.57,294.9Zm.19-2.91c-2.45,0-3.93-2.23-3.93-5.39s1.44-5.49,3.9-5.49,3.91,2.49,3.91,5.39C484.64,289.64,483.23,292,480.76,292Z" transform="translate(-16.9 -40.44)"/><path class="cls-5" d="M496.18,294.9a5.88,5.88,0,0,0,6.18-6.26,5.7,5.7,0,0,0-6-6,5.86,5.86,0,0,0-6.26,6.21A5.75,5.75,0,0,0,496.18,294.9Zm.09-2.62c-1.56,0-2.4-1.51-2.4-3.52,0-1.73.65-3.53,2.4-3.53s2.33,1.78,2.33,3.53C498.6,290.87,497.69,292.28,496.27,292.28Z" transform="translate(-16.9 -40.44)"/><path class="cls-5" d="M504.52,282.9c.05,1.08.1,2.4.1,3.94h0v12.54h3.64v-5.83h.05a3.64,3.64,0,0,0,3,1.35c2.62,0,5.32-2,5.32-6.29,0-3.74-2.3-6-4.86-6a4.51,4.51,0,0,0-3.91,1.89h0l-.17-1.63Zm3.81,7.46a4.19,4.19,0,0,1-.07-.76V288a3.32,3.32,0,0,1,.07-.65,2.28,2.28,0,0,1,2.19-1.84c1.62,0,2.46,1.41,2.46,3.28s-.93,3.31-2.51,3.31A2.2,2.2,0,0,1,508.33,290.36Z" transform="translate(-16.9 -40.44)"/><path class="cls-6" d="M518.93,291.44a7.08,7.08,0,0,0,3.14.89c1.11,0,1.56-.39,1.56-1s-.36-.89-1.72-1.35c-2.43-.81-3.36-2.13-3.34-3.52,0-2.19,1.87-3.84,4.77-3.84a7.86,7.86,0,0,1,3.31.67l-.65,2.52a5.68,5.68,0,0,0-2.54-.67c-.88,0-1.39.36-1.39,1s.46.84,1.9,1.34c2.23.77,3.16,1.9,3.18,3.62,0,2.18-1.72,3.79-5.08,3.79a8.25,8.25,0,0,1-3.78-.81Z" transform="translate(-16.9 -40.44)"/><path class="cls-5" d="M529.19,278.47l.56,10.86h2.73l.53-10.86Zm1.92,12.06a2.19,2.19,0,1,0,2.14,2.18A2.08,2.08,0,0,0,531.11,290.53Z" transform="translate(-16.9 -40.44)"/><path class="cls-7" d="M502.75,370.31s16.54-25.17,26.3-22.38c7.07,2,16,19.07,10.91,52.28S513.2,413,513.2,413L499,372.59Z" transform="translate(-16.9 -40.44)"/><path class="cls-8" d="M460.3,425.93s2.27,8.71-6.22,16.38-10.51,12.39-10.51,12.39L454.75,469l29.51-6.74L502,447.45l-2.13-12L474.15,417Z" transform="translate(-16.9 -40.44)"/><path class="cls-9" d="M484.8,377.43A71.54,71.54,0,0,0,456.91,393c-6.58,5.9-9.63,12.68-11.62,16.26a7.6,7.6,0,0,0,.37,8,19.58,19.58,0,0,0,9.23,6.83c7.78,3.06,19.82,5.18,25.25,6.05a7.67,7.67,0,0,0,5.23-1.06l13.91-8.58a7.66,7.66,0,0,0,3.44-4.73l3.6-14.8a7.7,7.7,0,0,0-1.56-6.72l-11.89-14.36a7.71,7.71,0,0,0-8.07-2.48Z" transform="translate(-16.9 -40.44)"/><path class="cls-10" d="M503.19,358.1s-20,11.72-18.39,19.33,9.39,15.06,4.14,19.51-6.91,3.73-9.33,8.38c-1.79,3.42-.44,5.95,1.44,3.86s7.65-6.28,12.5-1.77c3.16,2.94,3.27,12.66-3.48,13-10.38.52-21.95,1.58-23.11,7.22-.59,2.89,7.82,14.47,21.07,14.68s28.69-6.88,28.69-6.88l16.17-13.13-5.46-9.7s3.44-15-4-23.45S508.47,380,505,375.21C499.9,368.14,503.19,358.1,503.19,358.1Z" transform="translate(-16.9 -40.44)"/><path class="cls-11" d="M485.07,449.58s-20.75-10-32.61-2.7-21.28,33.68-69.78,29.64S290,457.93,290,457.93l-26.94,52,28,12.4,133.37-11.59,60.63-31.52,13.2-18.87Z" transform="translate(-16.9 -40.44)"/><path class="cls-12" d="M409.42,463.92l34.15-25.05s12.19,21.62,29.24,30.11l17,8.48-62.85,15s-5.39-5.53-14-21.29C411,467.48,409.42,463.92,409.42,463.92Z" transform="translate(-16.9 -40.44)"/><path class="cls-13" d="M415.9,459.17S391,426.94,387,408.76,379.45,335.6,374.87,330s-10.38-7.95-9.43-14.82,4.58-17.52,10.64-20.48c4.55-2.23-2.06-28.27,2.15-27.89,3,.27,6.07,23.71,8.22,26.95s6.2,14.41,6.6,19.26-1,7.28,0,15.16,11.72,66.48,20.08,79.95S438,443,438,443Z" transform="translate(-16.9 -40.44)"/><path class="cls-14" d="M285.65,466.31l-66.59-29.87L189,484.94s10.31,5.25,27.49,7.48S248,507.57,248,507.57l15.09,2.36Z" transform="translate(-16.9 -40.44)"/><path class="cls-15" d="M210.8,443l-12.15-19.27,38.65-28.56,50.2,67.59-1.85,3.57-66.59-29.87-4.83,7.78-3.59.91Z" transform="translate(-16.9 -40.44)"/><path class="cls-16" d="M49.18,519.71s-34.82-14.09-32.13-7.89,42,40,47.56,39.07,12-11.59,12-11.59Z" transform="translate(-16.9 -40.44)"/><path class="cls-17" d="M232.37,398.8S230.45,386.53,189,379s-91.52-17.62-95.48-19.73c-3.16-1.69-11.17-20.44-12.56-15-1.54,6-4.31,32.33,1.88,33.94s6.74-.53,14.82,1.89,35.37,17,63.66,20c23,2.46,31.46,8.55,35,12.32s7.15,7.83,7.15,7.83Z" transform="translate(-16.9 -40.44)"/><path class="cls-18" d="M82.37,343.52s-9.27-47-10.89-35.94-9.43,70.06-2.43,71.4a31.35,31.35,0,0,0,13.75-.8Z" transform="translate(-16.9 -40.44)"/><path class="cls-19" d="M527.43,412.6s-2.62,2.76-9.29-5.66c-1.81-2.29-5.55-1.83-11.52,3.57-8.41,7.6-10.71,13.25-2.69,17.11s20.47,6.6,20.47,6.6Z" transform="translate(-16.9 -40.44)"/><path class="cls-20" d="M526.88,412c-.15-.1.22,4.38-1.87,2.22-1.67-1.71-4-11-4.19-12-.73-3.66,2.37-2.73,4.8,2S526.88,412,526.88,412Z" transform="translate(-16.9 -40.44)"/><path class="cls-21" d="M214.23,444.23l-20.06,32.31L192.66,479l-6.13-2.86c-5.21-2.42-12.63,3.21-19.67,9.19-3.9,3.29-7.69,6.7-10.93,8.9-4.63,3.14-12.35,7.53-21,12.18-19.21,10.33-42.92,21.93-47.25,24-6.26,3-6,6.2-11.11,8.89S51.27,525,48.85,521s8.89,3,21.28,1.35c6.14-.8,26.55-15.74,48-32.26,8.84-6.8,17.86-13.87,26.14-20.33,6-4.68,11.61-9.05,16.46-12.75,5-3.83,9.27-7,12.31-9C193,434.49,214.23,444.23,214.23,444.23Z" transform="translate(-16.9 -40.44)"/><path class="cls-22" d="M148.35,448.23q6.12,4.53,12.39,8.76c-4.85,3.7-10.46,8.07-16.46,12.75a331.65,331.65,0,0,1-38.61-34.07,232.19,232.19,0,0,1-25.89-31.92,237.86,237.86,0,0,1-13.93-23.49q-.39-3-.69-6L62.05,344.9a240,240,0,0,0,20,36,232.49,232.49,0,0,0,25.9,31.93A331.1,331.1,0,0,0,148.35,448.23Z" transform="translate(-16.9 -40.44)"/><path class="cls-23" d="M560.78,344.9l-.68,18.32a211.43,211.43,0,0,1-2.28,24.09l.06-1.19.67-18.34c-10.75,26.51-10.5,40.82-46.88,80.43-46.44,50.58-116.39,71.1-185.95,77.44-1.55.15-3.1.28-4.64.4-55.87,4.35-108.26-11.91-154.22-40.75,7-6,14.46-11.61,19.67-9.19l6.13,2.86,1.51-2.43c39.6,19.84,83.19,30.2,129.13,26.63,1.55-.12,3.1-.26,4.64-.4,69.57-6.35,139.51-26.87,186-77.44C550.27,385.72,550,371.4,560.78,344.9Z" transform="translate(-16.9 -40.44)"/><path class="cls-24" d="M257.38,421.87l62.74,44.07a.62.62,0,0,0,.88-.17l1.89-2.79a.62.62,0,0,0-.16-.86L259.93,418a.63.63,0,0,0-.89.18L257.21,421A.63.63,0,0,0,257.38,421.87Z" transform="translate(-16.9 -40.44)"/><path class="cls-25" d="M259,418.13l7.15-73.94a1,1,0,0,1,1-.86l3.72.33a.94.94,0,0,1,.86,1L265,417.55a1.31,1.31,0,0,1-1.48,1.17Z" transform="translate(-16.9 -40.44)"/><path class="cls-26" d="M144.28,469.74c-8.28,6.45-17.3,13.53-26.14,20.33-27.71-29.82-46.72-66.88-52.28-109.81a235.83,235.83,0,0,0,13.92,23.49,232.19,232.19,0,0,0,25.89,31.92A331.65,331.65,0,0,0,144.28,469.74Z" transform="translate(-16.9 -40.44)"/><path class="cls-27" d="M558.55,367.78l-.67,18.34-.06,1.19c-9.05,59.53-43.18,113-94.83,145.3q-2.78,1.74-5.57,3.36c-2.1,1.22-4.23,2.42-6.37,3.58q-3.72,2-7.49,3.94C342.19,595,213.4,575,135,506.38c8.62-4.65,16.34-9,21-12.19,3.24-2.19,7-5.6,10.93-8.89,46,28.84,98.35,45.1,154.22,40.75,1.54-.12,3.09-.25,4.64-.4,69.56-6.34,139.51-26.86,186-77.44C548.05,408.6,547.8,394.29,558.55,367.78Z" transform="translate(-16.9 -40.44)"/><path class="cls-28" d="M358.56,538.75c-.35-3.76-1.52-14.46-1.91-18a1.2,1.2,0,0,1,1.06-1.33l18.1-2a1.2,1.2,0,0,1,1.33,1.12l1.15,16.68a1.21,1.21,0,0,1-1,1.26L360,539.81A1.21,1.21,0,0,1,358.56,538.75Z" transform="translate(-16.9 -40.44)"/><path class="cls-29" d="M360.15,537.12c-.28-2.78-.68-6.43-1-9.12a3.67,3.67,0,0,1,3.25-4l9.29-1.05a3.7,3.7,0,0,1,4.09,3.41l.57,8.42a3.68,3.68,0,0,1-3,3.87l-8.89,1.74A3.68,3.68,0,0,1,360.15,537.12Z" transform="translate(-16.9 -40.44)"/><path class="cls-30" d="M271.25,350.58c.05-.51,94.08-11.34,94.08-11.34l-13.5,117.61-86.41-44.28Z" transform="translate(-16.9 -40.44)"/><path class="cls-31" d="M348.36,554.34l-18.79-56.08a1.3,1.3,0,0,1,.62-1.56l2-1.06a1.29,1.29,0,0,1,1.84.73l19.16,57Z" transform="translate(-16.9 -40.44)"/><path class="cls-32" d="M350.82,555.67c-.4-2-3.61-33-4.33-40a1.28,1.28,0,0,1,1.27-1.42h1.91a1.29,1.29,0,0,1,1.28,1.15l4.36,39.41Z" transform="translate(-16.9 -40.44)"/><path class="cls-33" d="M323,539.84l64.91-12.73h0c-10.2,35.74-42.05,40.19-64.91,12.73Z" transform="translate(-16.9 -40.44)"/><path class="cls-34" d="M559.75,355.5a1.71,1.71,0,0,1-1.71-1.7V42.15a1.71,1.71,0,1,1,3.41,0V353.8A1.7,1.7,0,0,1,559.75,355.5Z" transform="translate(-16.9 -40.44)"/><path class="cls-35" d="M63.72,355.5A1.71,1.71,0,0,1,62,353.8V42.15a1.71,1.71,0,1,1,3.41,0V353.8A1.7,1.7,0,0,1,63.72,355.5Z" transform="translate(-16.9 -40.44)"/><path class="cls-36" d="M596.4,365.5s7-1.5,12,2.72a32.4,32.4,0,0,1,7.36,8.79s.35-10.74-1.31-15.89c-2.84-8.82-4.84-9.78-4.84-9.78l-12.88,9.49Z" transform="translate(-16.9 -40.44)"/><path class="cls-37" d="M643.12,360.36s7.58-.54,12.19,4.64a34.55,34.55,0,0,1,6.44,10.35s2-11.26,1-16.93c-1.68-9.69-3.64-11-3.64-11l-15,8.07Z" transform="translate(-16.9 -40.44)"/><path class="cls-38" d="M550.4,444.32c12.76,30.09,8.67,74.62,8.67,74.62l20.07-2.83s3.06-4.81,5.54-14.08c-.14-.24-.29-.51-.47-.81-1.69-2.94-8.75-3.76-8.75-3.76s-.27-.5,2.49-1.66a27.52,27.52,0,0,1,8.48-1.81,111.08,111.08,0,0,0,.41-32.53c-1-8.06-2.09-15.57-3-22.65-3-1.13-7.83-.44-7.83-.44s-.39-.42,2-2.24a24,24,0,0,1,5.14-2.9c-2.17-18.07-2.84-33.19,2-47-3-1.29-8.1-.56-8.1-.56s-.38-.42,2-2.23a28.64,28.64,0,0,1,9.2-4.35c.07-.15.15-.29.22-.44,11.35-21.44,20.47-27,21.1-27.33-.8.25-16.58,5.26-36.23,21.78C557.56,386.38,537.65,414.22,550.4,444.32Z" transform="translate(-16.9 -40.44)"/><path class="cls-39" d="M567,526.46a1,1,0,0,1-.29-.05.86.86,0,0,1-.52-1.09c5.62-16,8.18-59.81-.6-92s17.06-61.93,17.32-62.22a.85.85,0,0,1,1.2-.08.87.87,0,0,1,.08,1.21c-.26.29-25.51,29.32-17,60.64,8.87,32.47,6.26,76.75.57,93A.85.85,0,0,1,567,526.46Z" transform="translate(-16.9 -40.44)"/><path class="cls-40" d="M581.05,516.28h21.53s3.94-4.61,7.93-14h0l-.37-.92c-1.35-3.34-8.66-5.25-8.66-5.25s-.2-.57,2.87-1.37a29,29,0,0,1,9.19-.65,117.88,117.88,0,0,0,5.27-34.17c.13-8.63.11-16.7.2-24.27-3-1.64-8.18-1.64-8.18-1.64s-.34-.5,2.42-2.05a25.42,25.42,0,0,1,5.84-2.3c.4-19.34,1.94-35.34,9.09-49.11-2.94-1.8-8.44-1.8-8.44-1.8s-.34-.5,2.43-2.05a30.56,30.56,0,0,1,10.32-3.21c.1-.15.21-.29.31-.43,15.66-21.63,26.29-25.64,26.29-25.64s-17.64,2.71-41.4,17.55c-18.54,11.59-43.64,37.93-34.68,71.5S581.05,516.28,581.05,516.28Z" transform="translate(-16.9 -40.44)"/><path class="cls-39" d="M594.75,524a.92.92,0,0,1-.39-.09.85.85,0,0,1-.36-1.15c8.17-15.8,11.21-59.59,6.64-95.61-4.47-35.18,27.13-62.58,27.45-62.86a.85.85,0,1,1,1.1,1.3c-.31.27-31.22,27.09-26.86,61.34,4.61,36.31,1.48,80.55-6.82,96.61A.86.86,0,0,1,594.75,524Z" transform="translate(-16.9 -40.44)"/><path class="cls-41" d="M614.89,516.28H551.12l16.78,62.29s27.79.53,28.16.16S614.89,516.28,614.89,516.28Z" transform="translate(-16.9 -40.44)"/><path class="cls-42" d="M194.12,209.85v12.92a12.13,12.13,0,0,0,12.13,12.14h1.6A12.13,12.13,0,0,0,220,222.77V209.85h5a12.14,12.14,0,1,0,0-24.27h-5V111a12.13,12.13,0,0,0-12.13-12.14H198.2a12.13,12.13,0,0,0-10.07,5.36l-54.8,81.48a12.11,12.11,0,0,0-2.07,6.77v5.25a12.15,12.15,0,0,0,12.14,12.14Zm-1.59-72.21h1.59v47.94h-34Z" transform="translate(-16.9 -40.44)"/><path class="cls-42" d="M288,232.62a53.95,53.95,0,0,0,47.34,0,54.27,54.27,0,0,0,18-15A69.16,69.16,0,0,0,364.79,195a101.54,101.54,0,0,0,0-56.3,69.16,69.16,0,0,0-11.44-22.57,54.39,54.39,0,0,0-18-15,53.95,53.95,0,0,0-47.34,0,54.39,54.39,0,0,0-18,15,68.77,68.77,0,0,0-11.44,22.57,101.54,101.54,0,0,0,0,56.3A68.77,68.77,0,0,0,270,217.6,54.27,54.27,0,0,0,288,232.62ZM324.61,210a24.56,24.56,0,0,1-12.93,3.48A24.92,24.92,0,0,1,298.55,210a29.68,29.68,0,0,1-9.75-9.75,49.3,49.3,0,0,1-6.06-14.82,83.37,83.37,0,0,1,0-37.1,49.43,49.43,0,0,1,6.06-14.72,29.74,29.74,0,0,1,9.75-9.74,24.93,24.93,0,0,1,13.13-3.49,24.57,24.57,0,0,1,12.93,3.49,30.76,30.76,0,0,1,9.84,9.74,47.78,47.78,0,0,1,6.17,14.72,83.37,83.37,0,0,1,0,37.1,47.66,47.66,0,0,1-6.17,14.82A30.69,30.69,0,0,1,324.61,210Z" transform="translate(-16.9 -40.44)"/><path class="cls-43" d="M448.33,209.85v12.92a12.13,12.13,0,0,0,12.13,12.14h1.59a12.13,12.13,0,0,0,12.14-12.14V209.85h5a12.14,12.14,0,1,0,0-24.27h-5V111a12.13,12.13,0,0,0-12.14-12.14h-9.64a12.13,12.13,0,0,0-10.07,5.36l-54.8,81.48a12.11,12.11,0,0,0-2.07,6.77v5.25a12.15,12.15,0,0,0,12.14,12.14Zm-1.59-72.21h1.59v47.94h-34Z" transform="translate(-16.9 -40.44)"/></svg>